<?xml version="1.0" encoding="UTF-8" standalone="no"?>
<!-- Created with Inkscape (http://www.inkscape.org/) -->

<svg
   width="1000"
   height="1000"
   viewBox="0 0 1000 1000"
   version="1.1"
   id="svg1"
   inkscape:version="1.4 (e7c3feb100, 2024-10-09)"
   sodipodi:docname="ICON.svg"
   xml:space="preserve"
   xmlns:inkscape="http://www.inkscape.org/namespaces/inkscape"
   xmlns:sodipodi="http://sodipodi.sourceforge.net/DTD/sodipodi-0.dtd"
   xmlns:xlink="http://www.w3.org/1999/xlink"
   xmlns="http://www.w3.org/2000/svg"
   xmlns:svg="http://www.w3.org/2000/svg"><sodipodi:namedview
     id="namedview1"
     pagecolor="#673ab7"
     bordercolor="#666666"
     borderopacity="1.0"
     inkscape:showpageshadow="2"
     inkscape:pageopacity="0.0"
     inkscape:pagecheckerboard="0"
     inkscape:deskcolor="#d1d1d1"
     inkscape:document-units="px"
     inkscape:zoom="0.38415635"
     inkscape:cx="478.97165"
     inkscape:cy="765.31339"
     inkscape:current-layer="svg1" /><defs
     id="defs1"><color-profile
       name="sRGB"
       xlink:href="file:///app/share/color/icc/sRGB.icc"
       id="color-profile1" /></defs><rect
     style="fill:#404040;fill-opacity:1;stroke:#000000;stroke-width:2.75875"
     id="rect3"
     width="404.40607"
     height="337.22894"
     x="297.79697"
     y="443.31912"
     ry="0.1559349" /><rect
     style="fill:#673ab7;fill-opacity:1;stroke:#000000;stroke-width:7.96917"
     id="rect3-5"
     width="1023.9412"
     height="1111.3965"
     x="-6.9291954"
     y="-7.5392752"
     ry="0.51391053" /><g
     inkscape:label="Layer 1"
     inkscape:groupmode="layer"
     id="layer1"><path
       id="path1"
       style="display:inline;fill:#ffffff;fill-opacity:1;stroke-width:0.703909"
       d="m 297.26895,176.22693 c -12.4592,0 -22.52495,10.06575 -22.52495,22.52494 v 534.45071 c 0,41.41418 33.67147,90.57049 75.08565,90.57049 h 300.3407 c 41.41417,0 75.08565,-33.67147 75.08565,-75.08565 l -0.01,-437.31086 c 0,-37.3072 -30.26953,-67.5748 -67.57672,-67.5748 h -157.6743 c -12.45921,0 -22.52494,10.06573 -22.52494,22.52492 V 378.95326 H 319.79387 V 198.75187 c 0,-12.45919 -10.06574,-22.52494 -22.52492,-22.52494 z m 101.36315,67.57483 c -31.10645,-0.008 -56.32841,25.20684 -56.32841,56.31327 0,31.10646 25.22196,56.32104 56.32841,56.31329 31.10646,0.008 56.32653,-25.20684 56.32653,-56.31329 0,-31.10643 -25.22007,-56.32102 -56.32653,-56.31327 z m -11.25962,204.54495 c 20.73421,0 37.54282,16.80862 37.54282,37.54283 0,20.73421 -16.80861,37.54092 -37.54282,37.54092 -20.73421,0 -37.54283,-16.80671 -37.54283,-37.54092 0,-20.73421 16.80862,-37.54283 37.54283,-37.54283 z m 112.62658,0 c 20.73421,0 37.54282,16.80863 37.54282,37.54283 0,20.73421 -16.80861,37.54092 -37.54282,37.54092 -20.73421,0 -37.54094,-16.80671 -37.54094,-37.54092 0,-20.7342 16.80673,-37.54283 37.54094,-37.54283 z m 112.62847,0 c 20.73423,0 37.54282,16.80863 37.54282,37.54283 0,20.73421 -16.80859,37.54092 -37.54282,37.54092 -20.7342,0 -37.54282,-16.80671 -37.54282,-37.54092 0,-20.7342 16.80862,-37.54283 37.54282,-37.54283 z M 499.99906,560.96195 c 20.73885,0 37.5494,16.81529 37.54282,37.55418 0.007,20.73885 -16.80397,37.55416 -37.54282,37.55416 -20.73886,0 -37.54752,-16.81531 -37.54094,-37.55416 -0.007,-20.73889 16.80208,-37.55418 37.54094,-37.55418 z m 112.62847,0 c 20.73884,0 37.54939,16.81529 37.54282,37.55418 0.007,20.73885 -16.80398,37.55416 -37.54282,37.55416 -20.73884,0 -37.54938,-16.81531 -37.54282,-37.55416 -0.007,-20.73889 16.80398,-37.55418 37.54282,-37.55418 z m -225.25505,0.0114 c 20.73886,-0.007 37.55416,16.80398 37.55416,37.54283 0,20.73884 -16.8153,37.54938 -37.55416,37.54282 -20.73884,0.007 -37.55417,-16.80398 -37.55417,-37.54282 0,-20.73885 16.81533,-37.5494 37.55417,-37.54283 z m 0,112.62848 h 112.62658 c 20.76575,0 37.54282,16.77708 37.54282,37.54283 0,20.76574 -16.77707,37.54282 -37.54282,37.54282 H 387.37248 c -20.76574,0 -37.54283,-16.77708 -37.54283,-37.54282 0,-20.76575 16.77709,-37.54283 37.54283,-37.54283 z m 225.25505,0 c 20.73887,-0.007 37.55417,16.80398 37.55417,37.54283 0,20.73885 -16.8153,37.54939 -37.55417,37.54282 -20.73885,0.007 -37.55416,-16.80397 -37.55416,-37.54282 0,-20.73885 16.81531,-37.5494 37.55416,-37.54283 z"
       sodipodi:nodetypes="ssssssssssccsscscscsssssssssssssssscscsscscscscscssssssscscsc" /></g></svg>
